<?xml version="1.0" encoding="UTF-8"?>
<svg version="1.1" xmlns="http://www.w3.org/2000/svg" width="626" height="278">
<path d="M0 0 C206.58 0 413.16 0 626 0 C626 91.74 626 183.48 626 278 C419.42 278 212.84 278 0 278 C0 186.26 0 94.52 0 0 Z " fill="#08087B" transform="translate(0,0)"/>
<path d="M0 0 C54.78 0 109.56 0 166 0 C162.8449417 1.57752915 160.82621775 2.38654889 157.5 3.078125 C156.62327637 3.26616699 155.74655273 3.45420898 154.84326172 3.64794922 C153.90498535 3.84662598 152.96670898 4.04530273 152 4.25 C124.15865775 10.26372689 124.15865775 10.26372689 97.99609375 21.09472656 C96 22 96 22 92 22 C92 22.66 92 23.32 92 24 C90.68 24 89.36 24 88 24 C88 24.66 88 25.32 88 26 C86.71086513 26.67154933 85.41859796 27.33708859 84.125 28 C83.40570313 28.37125 82.68640625 28.7425 81.9453125 29.125 C80 30 80 30 78 30 C80.20441672 34.27916187 83.09867238 37.20393632 86.57421875 40.44921875 C88 42 88 42 88 44 C88.66 44 89.32 44 90 44 C90 44.66 90 45.32 90 46 C90.66 46 91.32 46 92 46 C94 49 94 49 94 52 C94.66 52 95.32 52 96 52 C98 55 98 55 98 58 C98.66 58 99.32 58 100 58 C112.09790924 80.74406936 112.9303338 101.17224766 108 126 C108.66 126 109.32 126 110 126 C110 126.66 110 127.32 110 128 C110.61875 128.2475 111.2375 128.495 111.875 128.75 C114.40358627 130.23740369 114.71839004 131.43678009 116 134 C116.66 134.33 117.32 134.66 118 135 C120.49016793 136.24508396 120.98686718 137.46716796 122 140 C122.66 140 123.32 140 124 140 C124 140.66 124 141.32 124 142 C124.86625 142.37125 124.86625 142.37125 125.75 142.75 C128.32939979 144.18299988 130.06121592 145.78424676 132 148 C132 148.66 132 149.32 132 150 C132.5775 150.2475 133.155 150.495 133.75 150.75 C136.32939979 152.18299988 138.06121592 153.78424676 140 156 C140 156.66 140 157.32 140 158 C140.66 158 141.32 158 142 158 C142 158.66 142 159.32 142 160 C142.66 160 143.32 160 144 160 C148 165.41176471 148 165.41176471 148 168 C148.66 168 149.32 168 150 168 C150 168.66 150 169.32 150 170 C150.66 170 151.32 170 152 170 C152 171.32 152 172.64 152 174 C152.66 174 153.32 174 154 174 C154.66 175.98 155.32 177.96 156 180 C156.66 180 157.32 180 158 180 C158 181.32 158 182.64 158 184 C158.66 184 159.32 184 160 184 C160.81487171 186.24916619 161.62696918 188.49926978 162.4375 190.75 C162.78264648 191.70132813 162.78264648 191.70132813 163.13476562 192.671875 C168.72226794 208.21970754 167.17078135 224.86641164 161 240 C160.67 240.66 160.34 241.32 160 242 C159.34 242 158.68 242 158 242 C157.88527344 242.57234375 157.77054688 243.1446875 157.65234375 243.734375 C156.93817644 246.21471656 155.92692128 248.06368697 154.5625 250.25 C154.13066406 250.95640625 153.69882813 251.6628125 153.25390625 252.390625 C152.63322266 253.18726563 152.63322266 253.18726563 152 254 C151.34 254 150.68 254 150 254 C150 254.99 150 255.98 150 257 C155.32512389 258.36747895 160.66040086 259.69048968 166 261 C166.93263672 261.23025879 167.86527344 261.46051758 168.82617188 261.69775391 C183.29409569 265.24339401 197.76857464 268.12950966 212.47705078 270.43920898 C213.69118652 270.63071533 214.90532227 270.82222168 216.15625 271.01953125 C217.23712891 271.18557861 218.31800781 271.35162598 219.43164062 271.52270508 C222 272 222 272 224 273 C226.24679046 273.36232026 228.50105852 273.6787093 230.7578125 273.97265625 C231.42086395 274.06002548 232.08391541 274.14739471 232.76705933 274.2374115 C234.88594612 274.51582326 237.00544608 274.78921814 239.125 275.0625 C240.5612411 275.25032112 241.99743962 275.43846813 243.43359375 275.62695312 C246.95524287 276.08841865 250.47745899 276.54538686 254 277 C254 277.33 254 277.66 254 278 C170.18 278 86.36 278 0 278 C0 186.26 0 94.52 0 0 Z " fill="#840EC9" transform="translate(0,0)"/>
<path d="M0 0 C0.495 1.98 0.495 1.98 1 4 C1.66 4 2.32 4 3 4 C3 4.66 3 5.32 3 6 C3.928125 6.37125 3.928125 6.37125 4.875 6.75 C7.40358627 8.23740369 7.71839004 9.43678009 9 12 C9.66 12.33 10.32 12.66 11 13 C13.49016793 14.24508396 13.98686718 15.46716796 15 18 C15.66 18 16.32 18 17 18 C17 18.66 17 19.32 17 20 C17.5775 20.2475 18.155 20.495 18.75 20.75 C21.32939979 22.18299988 23.06121592 23.78424676 25 26 C25 26.66 25 27.32 25 28 C25.5775 28.2475 26.155 28.495 26.75 28.75 C29.32939979 30.18299988 31.06121592 31.78424676 33 34 C33 34.66 33 35.32 33 36 C33.66 36 34.32 36 35 36 C35 36.66 35 37.32 35 38 C35.66 38 36.32 38 37 38 C41 43.41176471 41 43.41176471 41 46 C41.66 46 42.32 46 43 46 C43 46.66 43 47.32 43 48 C43.66 48 44.32 48 45 48 C45 49.32 45 50.64 45 52 C45.66 52 46.32 52 47 52 C47.99 54.97 47.99 54.97 49 58 C49.66 58 50.32 58 51 58 C51 59.32 51 60.64 51 62 C51.66 62 52.32 62 53 62 C53.81487171 64.24916619 54.62696918 66.49926978 55.4375 68.75 C55.66759766 69.38421875 55.89769531 70.0184375 56.13476562 70.671875 C61.72226794 86.21970754 60.17078135 102.86641164 54 118 C53.67 118.66 53.34 119.32 53 120 C52.34 120 51.68 120 51 120 C50.88527344 120.57234375 50.77054687 121.1446875 50.65234375 121.734375 C49.93817644 124.21471656 48.92692128 126.06368697 47.5625 128.25 C47.13066406 128.95640625 46.69882813 129.6628125 46.25390625 130.390625 C45.63322266 131.18726563 45.63322266 131.18726563 45 132 C44.34 132 43.68 132 43 132 C43 132.66 43 133.32 43 134 C36.14078075 132.38808348 29.53792711 130.64031672 23 128 C23 127.34 23 126.68 23 126 C22.0925 125.855625 21.185 125.71125 20.25 125.5625 C17.78523044 125.13590527 15.41152893 124.64925779 13 124 C13 123.34 13 122.68 13 122 C11.68 122 10.36 122 9 122 C9 121.34 9 120.68 9 120 C8.071875 119.79375 7.14375 119.5875 6.1875 119.375 C0.70943544 117.84204366 -4.09926188 114.81814597 -9 112 C-9 111.34 -9 110.68 -9 110 C-9.5775 109.71125 -10.155 109.4225 -10.75 109.125 C-12.83333333 108.08333333 -14.91666667 107.04166667 -17 106 C-17 105.34 -17 104.68 -17 104 C-17.66 104 -18.32 104 -19 104 C-19 103.34 -19 102.68 -19 102 C-19.66 102 -20.32 102 -21 102 C-21 101.34 -21 100.68 -21 100 C-21.66 100 -22.32 100 -23 100 C-23 99.34 -23 98.68 -23 98 C-23.66 98 -24.32 98 -25 98 C-25 97.34 -25 96.68 -25 96 C-25.66 96 -26.32 96 -27 96 C-27.99 93.03 -27.99 93.03 -29 90 C-29.66 90 -30.32 90 -31 90 C-31 88.68 -31 87.36 -31 86 C-31.66 86 -32.32 86 -33 86 C-34.74675802 80.00325593 -35.25682842 74.72635779 -35.125 68.5 C-35.11597656 67.67757812 -35.10695313 66.85515625 -35.09765625 66.0078125 C-35.07436865 64.00507917 -35.03850959 62.00249846 -35 60 C-34.34 60 -33.68 60 -33 60 C-32.896875 59.175 -32.79375 58.35 -32.6875 57.5 C-31.88353944 53.40710988 -30.53647842 49.87459775 -29 46 C-28.34 46 -27.68 46 -27 46 C-27 45.34 -27 44.68 -27 44 C-26.34 44 -25.68 44 -25 44 C-24.855625 43.38125 -24.71125 42.7625 -24.5625 42.125 C-24 40 -24 40 -23 38 C-22.34 38 -21.68 38 -21 38 C-20.7525 37.38125 -20.505 36.7625 -20.25 36.125 C-18.79371361 33.64931313 -17.62187494 33.04874998 -15 32 C-15 30.68 -15 29.36 -15 28 C-14.34 28 -13.68 28 -13 28 C-12.34 26.02 -11.68 24.04 -11 22 C-10.34 22 -9.68 22 -9 22 C-8.73316406 21.13632813 -8.46632813 20.27265625 -8.19140625 19.3828125 C-7.01084428 16.03079064 -5.57679919 13.02471 -3.9375 9.875 C-2.23238524 6.598178 -0.70533701 3.63988726 0 0 Z " fill="#6F0C80" transform="translate(107,122)"/>
<path d="M0 0 C43.56 0 87.12 0 132 0 C128.8449417 1.57752915 126.82621775 2.38654889 123.5 3.078125 C122.18491455 3.36018799 122.18491455 3.36018799 120.84326172 3.64794922 C119.90498535 3.84662598 118.96670898 4.04530273 118 4.25 C90.15865775 10.26372689 90.15865775 10.26372689 63.99609375 21.09472656 C62 22 62 22 58 22 C58 22.66 58 23.32 58 24 C56.68 24 55.36 24 54 24 C54 24.66 54 25.32 54 26 C52.71086513 26.67154933 51.41859796 27.33708859 50.125 28 C49.40570313 28.37125 48.68640625 28.7425 47.9453125 29.125 C46 30 46 30 44 30 C43.67 30.66 43.34 31.32 43 32 C42.01 31.34 41.02 30.68 40 30 C40 29.34 40 28.68 40 28 C39.34 28 38.68 28 38 28 C38 27.34 38 26.68 38 26 C37.34 26 36.68 26 36 26 C36 25.34 36 24.68 36 24 C34.02 23.34 32.04 22.68 30 22 C30 21.34 30 20.68 30 20 C29.34 20 28.68 20 28 20 C28 19.34 28 18.68 28 18 C27.34 18 26.68 18 26 18 C26 17.34 26 16.68 26 16 C24.68 16 23.36 16 22 16 C22 15.34 22 14.68 22 14 C21.34 14 20.68 14 20 14 C20 13.34 20 12.68 20 12 C18.68 12 17.36 12 16 12 C16 11.34 16 10.68 16 10 C15.34 10 14.68 10 14 10 C14 9.34 14 8.68 14 8 C12.68 8 11.36 8 10 8 C10 7.34 10 6.68 10 6 C8.02 5.34 6.04 4.68 4 4 C4 3.34 4 2.68 4 2 C2.68 2 1.36 2 0 2 C0 1.34 0 0.68 0 0 Z " fill="#7B0B85" transform="translate(34,0)"/>
<path d="M0 0 C1.50592508 0.65317233 3.00817784 1.31522917 4.5 2 C4.5 2.66 4.5 3.32 4.5 4 C5.16 4 5.82 4 6.5 4 C10.94229657 9.9230621 12.29833488 14.60209676 11.5 22 C10.68422331 24.78881798 9.64841244 27.32037097 8.5 30 C7.84 30 7.18 30 6.5 30 C5.84 31.32 5.18 32.64 4.5 34 C3.84 34 3.18 34 2.5 34 C2.5 34.66 2.5 35.32 2.5 36 C1.18 36 -0.14 36 -1.5 36 C-1.5 36.66 -1.5 37.32 -1.5 38 C-16.46869225 38.48722687 -16.46869225 38.48722687 -21.9375 34 C-23.5 32 -23.5 32 -23.5 30 C-24.16 30 -24.82 30 -25.5 30 C-27.24039663 25.48325636 -27.77087296 21.70708948 -27.75 16.875 C-27.75515625 15.67617187 -27.7603125 14.47734375 -27.765625 13.2421875 C-27.5177204 10.21629313 -27.09019672 8.53674239 -25.5 6 C-24.84 6 -24.18 6 -23.5 6 C-23.5 5.34 -23.5 4.68 -23.5 4 C-22.84 4 -22.18 4 -21.5 4 C-21.5 3.34 -21.5 2.68 -21.5 2 C-13.85810967 -2.55261551 -8.29312164 -3.27052685 0 0 Z " fill="#890FCB" transform="translate(153.5,66)"/>
<path d="M0 0 C3.26678787 2.12373684 6.24011654 4.48023308 8 8 C8.50872093 14.10465114 8.06705978 17.11952826 4 22 C0.68629 24.20914 -0.3446021 24.22481553 -4.1875 24.125 C-5.08855469 24.10695312 -5.98960937 24.08890625 -6.91796875 24.0703125 C-7.60503906 24.04710937 -8.29210937 24.02390625 -9 24 C-9 23.34 -9 22.68 -9 22 C-9.66 22 -10.32 22 -11 22 C-11 21.34 -11 20.68 -11 20 C-11.99 20 -12.98 20 -14 20 C-16.49112985 16.26330522 -16.54387684 12.33374879 -16 8 C-14.59779653 4.49449132 -13.40576082 3.26743327 -10.25 1.1875 C-6.3900609 -0.22286236 -4.0780629 -0.64390467 0 0 Z " fill="#6F0DBE" transform="translate(181,116)"/>
<path d="M0 0 C2.4375 1.625 2.4375 1.625 4 4 C4.48720518 7.34083555 4.43968173 9.20628882 2.796875 12.171875 C1 14 1 14 -1.48046875 14.390625 C-2.82044922 14.32101563 -2.82044922 14.32101563 -4.1875 14.25 C-5.08855469 14.21390625 -5.98960937 14.1778125 -6.91796875 14.140625 C-7.60503906 14.09421875 -8.29210937 14.0478125 -9 14 C-9 13.34 -9 12.68 -9 12 C-9.66 12 -10.32 12 -11 12 C-11.48192771 4.77108434 -11.48192771 4.77108434 -9.4375 1.5 C-6.05111671 -0.58392818 -3.90614682 -0.55802097 0 0 Z " fill="#7B0B87" transform="translate(191,50)"/>
<path d="M0 0 C3.2702574 2.11109685 6.2424884 4.4849768 8 8 C8.40601504 16.39097744 8.40601504 16.39097744 6 20 C5.01 20 4.02 20 3 20 C3 18.02 3 16.04 3 14 C1.68 14 0.36 14 -1 14 C-1 12.68 -1 11.36 -1 10 C-1.66 10 -2.32 10 -3 10 C-3 9.34 -3 8.68 -3 8 C-3.66 8 -4.32 8 -5 8 C-5 6.68 -5 5.36 -5 4 C-6.98 4 -8.96 4 -11 4 C-11 3.34 -11 2.68 -11 2 C-7.31000578 -0.3615963 -4.30845736 -0.58419761 0 0 Z " fill="#AA13DC" transform="translate(181,116)"/>
<path d="M0 0 C6.93 0 13.86 0 21 0 C17.8449417 1.57752915 15.82621775 2.38654889 12.5 3.078125 C11.62182617 3.26665039 10.74365234 3.45517578 9.83886719 3.64941406 C8.90204102 3.84760742 7.96521484 4.04580078 7 4.25 C-10.43833226 7.77882003 -10.43833226 7.77882003 -27 14 C-28.99960012 14.039992 -31.00047242 14.04346799 -33 14 C-33 13.34 -33 12.68 -33 12 C-32.21753906 11.87882813 -31.43507813 11.75765625 -30.62890625 11.6328125 C-29.11103516 11.38144531 -29.11103516 11.38144531 -27.5625 11.125 C-26.55316406 10.96257813 -25.54382813 10.80015625 -24.50390625 10.6328125 C-23.67761719 10.42398437 -22.85132812 10.21515625 -22 10 C-21.67 9.34 -21.34 8.68 -21 8 C-17.55591009 6.35995719 -14.18230739 5.53125276 -10.4375 4.875 C-9.04337891 4.62363281 -9.04337891 4.62363281 -7.62109375 4.3671875 C-5 4 -5 4 -1 4 C-0.67 2.68 -0.34 1.36 0 0 Z " fill="#D307A4" transform="translate(145,0)"/>
<path d="M0 0 C7.23822934 0.48144186 14.39103834 1.43606665 21.5625 2.5 C22.45549805 2.63059814 23.34849609 2.76119629 24.26855469 2.89575195 C25.1093457 3.02296631 25.95013672 3.15018066 26.81640625 3.28125 C27.57381104 3.39533203 28.33121582 3.50941406 29.11157227 3.62695312 C31 4 31 4 33 5 C35.24679046 5.36232026 37.50105852 5.6787093 39.7578125 5.97265625 C40.42086395 6.06002548 41.08391541 6.14739471 41.76705933 6.2374115 C43.88594612 6.51582326 46.00544608 6.78921814 48.125 7.0625 C49.5612411 7.25032112 50.99743962 7.43846813 52.43359375 7.62695312 C55.95524287 8.08841865 59.47745899 8.54538686 63 9 C63 9.33 63 9.66 63 10 C55.08 10 47.16 10 39 10 C39 9.34 39 8.68 39 8 C37.081875 8.0309375 37.081875 8.0309375 35.125 8.0625 C31.25 8.125 31.25 8.125 29 7 C26.9625237 6.77141886 24.91959697 6.58975722 22.875 6.4375 C21.23144531 6.31181641 21.23144531 6.31181641 19.5546875 6.18359375 C18.71164063 6.12300781 17.86859375 6.06242187 17 6 C17 5.34 17 4.68 17 4 C15.2984375 4.0309375 15.2984375 4.0309375 13.5625 4.0625 C10 4 10 4 9 3 C6.9412232 2.72046781 4.88271568 2.55265649 2.8125 2.37890625 C1.9153125 2.19134766 1.9153125 2.19134766 1 2 C0.67 1.34 0.34 0.68 0 0 Z " fill="#DC1EEF" transform="translate(191,268)"/>
<path d="M0 0 C3.5 1.5625 3.5 1.5625 6 3 C6 3.66 6 4.32 6 5 C6.66 5 7.32 5 8 5 C12.71098704 11.28131606 13.24568809 15.3836692 13 23 C12.67 23.66 12.34 24.32 12 25 C11.34 25 10.68 25 10 25 C9.93941406 24.09636719 9.87882812 23.19273438 9.81640625 22.26171875 C9.73261719 21.08222656 9.64882812 19.90273437 9.5625 18.6875 C9.48128906 17.51574219 9.40007812 16.34398437 9.31640625 15.13671875 C9.1132629 11.97409042 9.1132629 11.97409042 8 9 C6.12612784 8.19787372 6.12612784 8.19787372 3.9375 7.8125 C3.20402344 7.65394531 2.47054687 7.49539062 1.71484375 7.33203125 C1.14894531 7.22246094 0.58304688 7.11289063 0 7 C0 5.68 0 4.36 0 3 C-2.01822917 3.09765625 -4.03645833 3.1953125 -6.0546875 3.29296875 C-6.69664062 3.19628906 -7.33859375 3.09960938 -8 3 C-8.66 2.01 -9.32 1.02 -10 0 C-6.75341222 -1.62329389 -3.42980973 -0.74312544 0 0 Z " fill="#C61BE9" transform="translate(152,65)"/>
<path d="M0 0 C2.4375 1.625 2.4375 1.625 4 4 C4.31452272 7.14522722 4.42041821 9.15916359 3 12 C2.34 12 1.68 12 1 12 C1 10.68 1 9.36 1 8 C-0.98 8 -2.96 8 -5 8 C-5 7.34 -5 6.68 -5 6 C-5.66 6 -6.32 6 -7 6 C-7 5.34 -7 4.68 -7 4 C-7.66 4 -8.32 4 -9 4 C-9 3.01 -9 2.02 -9 1 C-5.90826248 -0.54586876 -3.40570448 -0.29359521 0 0 Z " fill="#A80796" transform="translate(191,50)"/>
<path d="M0 0 C-0.639375 0.268125 -1.27875 0.53625 -1.9375 0.8125 C-4.33131686 1.88667752 -4.33131686 1.88667752 -5 5 C-6.32 5 -7.64 5 -9 5 C-10.5700171 5.24803631 -12.13348189 5.54107875 -13.6875 5.875 C-14.47511719 6.03742187 -15.26273438 6.19984375 -16.07421875 6.3671875 C-16.70972656 6.57601563 -17.34523438 6.78484375 -18 7 C-18.33 7.66 -18.66 8.32 -19 9 C-20.64821244 10.03013277 -22.31503702 11.03114628 -24 12 C-24.33 12.33 -24.66 12.66 -25 13 C-27.67058851 13.14115161 -30.32432238 13.04247107 -33 13 C-31.68 12.34 -30.36 11.68 -29 11 C-29 10.34 -29 9.68 -29 9 C-27.68 9 -26.36 9 -25 9 C-25 8.34 -25 7.68 -25 7 C-22.45884998 6.04027826 -19.91710543 5.08218506 -17.375 4.125 C-16.66214844 3.85558594 -15.94929688 3.58617187 -15.21484375 3.30859375 C-13.14629946 2.53051746 -11.07352517 1.7646826 -9 1 C-7.89914063 0.58492187 -6.79828125 0.16984375 -5.6640625 -0.2578125 C-3 -1 -3 -1 0 0 Z " fill="#0D056B" transform="translate(117,15)"/>
<path d="M0 0 C7.20620239 8.48949871 5.61515205 23.41277565 5 34 C4.41565686 38.99076743 3.80264357 42.79603464 1 47 C-0.47137249 44.05725501 0.34343673 41.90236554 0.875 38.6875 C1.05804688 37.55699219 1.24109375 36.42648438 1.4296875 35.26171875 C1.76580149 33.33942298 2.13303962 31.4213688 2.5703125 29.51953125 C3.61340225 23.40323224 2.74662543 17.7929328 1.5 11.8125 C0.68069531 7.81562173 0 4.10821944 0 0 Z " fill="#AF1DE3" transform="translate(106,74)"/>
<path d="M0 0 C0.33 0 0.66 0 1 0 C1.43915591 12.12558265 1.26994753 22.48639148 -3 34 C-3.66 34 -4.32 34 -5 34 C-5 32.02 -5 30.04 -5 28 C-4.34 28 -3.68 28 -3 28 C-3 25.36 -3 22.72 -3 20 C-2.34 20 -1.68 20 -1 20 C-1.01160156 18.72382813 -1.02320313 17.44765625 -1.03515625 16.1328125 C-1.04453417 14.46354313 -1.05363437 12.79427217 -1.0625 11.125 C-1.07087891 10.28324219 -1.07925781 9.44148437 -1.08789062 8.57421875 C-1.09111328 7.76855469 -1.09433594 6.96289062 -1.09765625 6.1328125 C-1.10289307 5.38918457 -1.10812988 4.64555664 -1.11352539 3.87939453 C-1 2 -1 2 0 0 Z " fill="#A40895" transform="translate(165,204)"/>
<path d="M0 0 C0.66 0 1.32 0 2 0 C2 0.66 2 1.32 2 2 C2.66 2 3.32 2 4 2 C4 3.32 4 4.64 4 6 C5.32 6 6.64 6 8 6 C8 7.98 8 9.96 8 12 C8.66 12.33 9.32 12.66 10 13 C9 14 9 14 6.4375 14.0625 C5.633125 14.041875 4.82875 14.02125 4 14 C4 12.02 4 10.04 4 8 C2.68 8 1.36 8 0 8 C0 5.36 0 2.72 0 0 Z " fill="#8A10CD" transform="translate(176,124)"/>
<path d="M0 0 C0.33 0.66 0.66 1.32 1 2 C1.66 2 2.32 2 3 2 C5 5 5 5 5 8 C5.66 8 6.32 8 7 8 C8.0098473 9.91149668 9.00754495 11.82941569 10 13.75 C10.556875 14.81734375 11.11375 15.8846875 11.6875 16.984375 C13 20 13 20 13 24 C12.34 24 11.68 24 11 24 C10.51801537 22.75108386 10.03954323 21.50081192 9.5625 20.25 C9.29566406 19.55390625 9.02882813 18.8578125 8.75390625 18.140625 C8.03853307 16.10940997 7.48634348 14.0964709 7 12 C6.34 12 5.68 12 5 12 C5 11.01 5 10.02 5 9 C4.34 9 3.68 9 3 9 C3 8.01 3 7.02 3 6 C2.34 6 1.68 6 1 6 C0.67 4.02 0.34 2.04 0 0 Z " fill="#AF18E3" transform="translate(93,50)"/>
<path d="M0 0 C7.78593716 1.61088355 15.37428218 3.76543688 23 6 C23 6.66 23 7.32 23 8 C18.87618245 8.2425775 15.88709552 7.29569851 12 6 C9.24934768 5.83142517 9.24934768 5.83142517 7 6 C7 5.34 7 4.68 7 4 C6.030625 3.71125 5.06125 3.4225 4.0625 3.125 C1 2 1 2 0 0 Z " fill="#D71EF4" transform="translate(147,256)"/>
<path d="M0 0 C0.33 0 0.66 0 1 0 C1.03738281 0.83402344 1.07476562 1.66804687 1.11328125 2.52734375 C1.52381216 9.5546669 2.44234969 15.43907095 5 22 C4.34 22 3.68 22 3 22 C3 21.34 3 20.68 3 20 C2.34 20 1.68 20 1 20 C-0.92581702 13.62073111 -1.50369156 7.66512783 -1 1 C-0.67 0.67 -0.34 0.34 0 0 Z " fill="#311262" transform="translate(73,188)"/>
<path d="M0 0 C0.66 0 1.32 0 2 0 C2.66 1.98 3.32 3.96 4 6 C4.66 6 5.32 6 6 6 C6 7.32 6 8.64 6 10 C6.66 10 7.32 10 8 10 C9.31626692 13.61973402 10 16.09567131 10 20 C9.34 20 8.68 20 8 20 C7.81824219 19.40832031 7.63648438 18.81664062 7.44921875 18.20703125 C6.03429011 13.75907609 4.52019642 9.96030865 2 6 C2 5.34 2 4.68 2 4 C1.34 4 0.68 4 0 4 C0 2.68 0 1.36 0 0 Z " fill="#A70A95" transform="translate(152,174)"/>
<path d="M0 0 C2.97 0 5.94 0 9 0 C6.55200137 2.44799863 4.52399884 3.02552278 1.25 4.125 C0.22390625 4.47820313 -0.8021875 4.83140625 -1.859375 5.1953125 C-5.04227344 6.01083125 -7.73004326 6.14685434 -11 6 C-11 5.34 -11 4.68 -11 4 C-5.555 3.01 -5.555 3.01 0 2 C0 1.34 0 0.68 0 0 Z " fill="#A40B97" transform="translate(123,8)"/>
<path d="M0 0 C-3.42298182 3.42298182 -8.06394189 3.91199736 -12.75 4.125 C-15.17007854 4.125 -17.58168642 4.08920009 -20 4 C-19 2 -19 2 -17.28515625 1.3671875 C-11.45178501 0.07543921 -5.96482204 -0.2241478 0 0 Z " fill="#BE089E" transform="translate(148,4)"/>
<path d="M0 0 C6.27586207 -0.48275862 6.27586207 -0.48275862 9.4375 1.625 C11.39644605 4.602598 11.31785906 6.50355037 11 10 C10.34 10 9.68 10 9 10 C8.67 8.02 8.34 6.04 8 4 C7.34 4 6.68 4 6 4 C6 3.34 6 2.68 6 2 C4.02 2 2.04 2 0 2 C0 1.34 0 0.68 0 0 Z " fill="#CB0AA7" transform="translate(184,50)"/>
<path d="M0 0 C1.98 0 3.96 0 6 0 C6.38218767 1.65614657 6.71395102 3.32457024 7 5 C6 6 6 6 2.9375 6.0625 C1.4834375 6.0315625 1.4834375 6.0315625 0 6 C0 4.02 0 2.04 0 0 Z " fill="#800A8A" transform="translate(186,58)"/>
<path d="M0 0 C0.33 0 0.66 0 1 0 C1.28571429 8.57142857 1.28571429 8.57142857 -1 12 C-1.99 12 -2.98 12 -4 12 C-4.22033069 8.14421297 -3.69165661 5.47729415 -2 2 C-1.34 1.34 -0.68 0.68 0 0 Z " fill="#A018D7" transform="translate(188,124)"/>
<path d="M0 0 C7.75451806 0.58006237 15.34742277 1.62440584 23 3 C23 3.33 23 3.66 23 4 C20.85423363 4.02685938 18.70837355 4.04633088 16.5625 4.0625 C15.36753906 4.07410156 14.17257813 4.08570313 12.94140625 4.09765625 C10 4 10 4 9 3 C6.9412232 2.72046781 4.88271568 2.55265649 2.8125 2.37890625 C1.9153125 2.19134766 1.9153125 2.19134766 1 2 C0.67 1.34 0.34 0.68 0 0 Z " fill="#CE23E9" transform="translate(191,268)"/>
<path d="M0 0 C5.76044212 0.60636233 10.72014369 2.75658279 16 5 C16 5.33 16 5.66 16 6 C11.53160785 6.21278058 8.17737474 5.59138085 4 4 C4 3.34 4 2.68 4 2 C2.68 2 1.36 2 0 2 C0 1.34 0 0.68 0 0 Z " fill="#C319E9" transform="translate(130,250)"/>
<path d="M0 0 C2.62655933 0.35494045 4.57968261 0.72461964 6.8125 2.1875 C8.51995571 4.79361661 8.20267097 6.9599355 8 10 C7.34 8.68 6.68 7.36 6 6 C5.34 6 4.68 6 4 6 C4 5.34 4 4.68 4 4 C3.34 4 2.68 4 2 4 C2 3.34 2 2.68 2 2 C1.34 2 0.68 2 0 2 C0 1.34 0 0.68 0 0 Z " fill="#CA17F1" transform="translate(180,118)"/>
<path d="M0 0 C0.66 0 1.32 0 2 0 C1.91433603 2.912575 1.42089045 4.56798024 -0.625 6.66796875 C-2.38391375 8.16091772 -4.16313019 9.60436262 -6 11 C-6 10.01 -6 9.02 -6 8 C-5.34 8 -4.68 8 -4 8 C-3.7834375 7.071875 -3.7834375 7.071875 -3.5625 6.125 C-3 4 -3 4 -2 2 C-1.34 2 -0.68 2 0 2 C0 1.34 0 0.68 0 0 Z " fill="#4A1073" transform="translate(86,158)"/>
<path d="M0 0 C0.99 0.33 1.98 0.66 3 1 C2.57576756 2.46224799 2.13509755 3.91973412 1.6875 5.375 C1.44386719 6.18710938 1.20023438 6.99921875 0.94921875 7.8359375 C0 10 0 10 -3 12 C-2.01 8.04 -1.02 4.08 0 0 Z " fill="#0E0569" transform="translate(164,228)"/>
<path d="M0 0 C0 0.66 0 1.32 0 2 C-1.03125 2.12375 -2.0625 2.2475 -3.125 2.375 C-6.62116846 2.93889814 -9.68397627 3.78682059 -13 5 C-13.33 4.34 -13.66 3.68 -14 3 C-9.07015675 0.96006486 -5.42039575 -0.40652968 0 0 Z " fill="#0E056A" transform="translate(132,10)"/>
<path d="M0 0 C1.32 0.33 2.64 0.66 4 1 C4 1.66 4 2.32 4 3 C5.98 3 7.96 3 10 3 C9.360625 3.28875 8.72125 3.5775 8.0625 3.875 C5.84793921 4.82823451 5.84793921 4.82823451 5 7 C4.01 6.34 3.02 5.68 2 5 C2 4.34 2 3.68 2 3 C1.34 3 0.68 3 0 3 C0 2.01 0 1.02 0 0 Z " fill="#640F83" transform="translate(72,25)"/>
<path d="M0 0 C0.66 0 1.32 0 2 0 C1.54554036 1.41791408 1.08625056 2.83428046 0.625 4.25 C0.36976562 5.03890625 0.11453125 5.8278125 -0.1484375 6.640625 C-0.95173667 8.86627958 -1.89711662 10.90931672 -3 13 C-3.33 13 -3.66 13 -4 13 C-3.50269348 8.02693484 -2.44697666 4.36200187 0 0 Z " fill="#391069" transform="translate(78,170)"/>
<path d="M0 0 C0.66 0 1.32 0 2 0 C1.40312566 3.34249629 0.26396123 5.46436342 -2 8 C-2.66 8 -3.32 8 -4 8 C-4.33 8.66 -4.66 9.32 -5 10 C-4.67 8.02 -4.34 6.04 -4 4 C-3.34 4 -2.68 4 -2 4 C-2 3.34 -2 2.68 -2 2 C-1.34 2 -0.68 2 0 2 C0 1.34 0 0.68 0 0 Z " fill="#A214DB" transform="translate(88,152)"/>
<path d="M0 0 C0.66 0 1.32 0 2 0 C1.44893487 3.3063908 0.90012129 6.19982126 -1 9 C-2.32 9.33 -3.64 9.66 -5 10 C-3.35 6.7 -1.7 3.4 0 0 Z " fill="#140567" transform="translate(158,242)"/>
<path d="M0 0 C1.98 0.99 1.98 0.99 4 2 C4 2.66 4 3.32 4 4 C4.99 4.33 5.98 4.66 7 5 C6.67 5.66 6.34 6.32 6 7 C3.03 6.505 3.03 6.505 0 6 C0 5.34 0 4.68 0 4 C0.66 4 1.32 4 2 4 C2 3.34 2 2.68 2 2 C1.34 2 0.68 2 0 2 C0 1.34 0 0.68 0 0 Z " fill="#8E098D" transform="translate(128,146)"/>
<path d="M0 0 C0.66 0 1.32 0 2 0 C1.49287967 3.71888239 0.88391785 6.73454239 -1 10 C-1.66 10 -2.32 10 -3 10 C-2.01 6.7 -1.02 3.4 0 0 Z " fill="#B118E4" transform="translate(102,128)"/>
<path d="M0 0 C4.21912747 0.4794463 6.79663178 1.16625119 10 4 C8.02 4 6.04 4 4 4 C4 3.34 4 2.68 4 2 C2.68 2 1.36 2 0 2 C0 1.34 0 0.68 0 0 Z " fill="#610D7C" transform="translate(116,242)"/>
<path d="M0 0 C0.66 0 1.32 0 2 0 C2 0.66 2 1.32 2 2 C2.66 2 3.32 2 4 2 C4 2.66 4 3.32 4 4 C4.66 4 5.32 4 6 4 C6 4.66 6 5.32 6 6 C4.68 6 3.36 6 2 6 C2 5.34 2 4.68 2 4 C1.34 4 0.68 4 0 4 C0 2.68 0 1.36 0 0 Z " fill="#8A0987" transform="translate(120,138)"/>
<path d="M0 0 C1.98 0 3.96 0 6 0 C6 1.32 6 2.64 6 4 C4.68 4 3.36 4 2 4 C2 3.34 2 2.68 2 2 C1.34 2 0.68 2 0 2 C0 1.34 0 0.68 0 0 Z " fill="#510B7E" transform="translate(180,60)"/>
<path d="M0 0 C1.32 0 2.64 0 4 0 C4 0.66 4 1.32 4 2 C4.66 2 5.32 2 6 2 C6 3.32 6 4.64 6 6 C5.34 6 4.68 6 4 6 C4 5.34 4 4.68 4 4 C3.34 4 2.68 4 2 4 C1.34 2.68 0.68 1.36 0 0 Z " fill="#190A6E" transform="translate(120,136)"/>
<path d="M0 0 C2.72869407 0.03287583 5.2966618 0.56397771 8 1 C8 1.33 8 1.66 8 2 C6.02 2 4.04 2 2 2 C2 2.66 2 3.32 2 4 C0.68 3.34 -0.64 2.68 -2 2 C-1.34 1.34 -0.68 0.68 0 0 Z " fill="#AE1CDF" transform="translate(144,64)"/>
<path d="M0 0 C-3.90028225 2.60018816 -7.47434569 2.15085514 -12 2 C-8.63758153 -1.36241847 -4.39594827 -1.5216744 0 0 Z " fill="#2E056D" transform="translate(166,2)"/>
<path d="M0 0 C1.46726798 3.81489674 0.43336419 6.29011622 -1 10 C-3 7 -3 7 -3 4 C-2.34 4 -1.68 4 -1 4 C-0.67 2.68 -0.34 1.36 0 0 Z " fill="#9F0A94" transform="translate(165,220)"/>
<path d="M0 0 C1.98 0 3.96 0 6 0 C6 0.66 6 1.32 6 2 C6.66 2 7.32 2 8 2 C8 2.66 8 3.32 8 4 C5.07120629 3.37240135 2.63904371 2.41377341 0 1 C0 0.67 0 0.34 0 0 Z " fill="#B5069F" transform="translate(184,52)"/>
<path d="M0 0 C0.99 0.33 1.98 0.66 3 1 C3 1.99 3 2.98 3 4 C3.66 4 4.32 4 5 4 C4.67 5.32 4.34 6.64 4 8 C1.84622436 5.37801226 0.59927826 3.35595828 0 0 Z " fill="#160568" transform="translate(153,172)"/>
<path d="M0 0 C0.66 0 1.32 0 2 0 C2 0.66 2 1.32 2 2 C2.66 2 3.32 2 4 2 C4 3.32 4 4.64 4 6 C2.68 6.33 1.36 6.66 0 7 C0.2784375 6.1028125 0.2784375 6.1028125 0.5625 5.1875 C1.22093687 2.83591238 1.22093687 2.83591238 0 0 Z " fill="#9C078F" transform="translate(148,168)"/>
</svg>
